<svg xmlns="http://www.w3.org/2000/svg" xmlns:xlink="http://www.w3.org/1999/xlink" width="500" zoomAndPan="magnify" viewBox="0 0 375 374.999991" height="500" preserveAspectRatio="xMidYMid meet" version="1.0"><defs><g/><clipPath id="01e799bd1b"><path d="M 122.082031 124.582031 L 257 124.582031 L 257 191.332031 L 122.082031 191.332031 Z M 122.082031 124.582031 " clip-rule="nonzero"/></clipPath><clipPath id="823823ae34"><path d="M 229 178 L 251 178 L 251 191.332031 L 229 191.332031 Z M 229 178 " clip-rule="nonzero"/></clipPath></defs><rect x="-37.5" width="450" fill="#ffffff" y="-37.499999" height="449.999989" fill-opacity="1"/><rect x="-37.5" width="450" fill="#020217" y="-37.499999" height="449.999989" fill-opacity="1"/><path fill="#ffbd59" d="M 258.957031 142.480469 L 250.007812 142.480469 C 246.382812 142.480469 243.433594 145.425781 243.433594 149.050781 C 243.433594 152.675781 246.382812 155.621094 250.007812 155.621094 L 258.957031 155.621094 C 262.578125 155.621094 265.527344 152.675781 265.527344 149.050781 C 265.527344 145.425781 262.578125 142.480469 258.957031 142.480469 Z M 258.957031 151.425781 L 250.007812 151.425781 C 248.695312 151.425781 247.628906 150.359375 247.628906 149.050781 C 247.628906 147.738281 248.695312 146.671875 250.007812 146.671875 L 258.957031 146.671875 C 260.265625 146.671875 261.332031 147.738281 261.332031 149.050781 C 261.332031 150.359375 260.265625 151.425781 258.957031 151.425781 Z M 258.957031 151.425781 " fill-opacity="1" fill-rule="nonzero"/><g clip-path="url(#01e799bd1b)"><path fill="#ffbd59" d="M 216.730469 178.273438 L 210.425781 178.273438 C 209.105469 178.273438 207.984375 177.257812 207.925781 176.011719 C 207.894531 175.355469 208.125 174.730469 208.578125 174.257812 C 209.03125 173.78125 209.644531 173.519531 210.300781 173.519531 L 235.746094 173.519531 C 239.367188 173.519531 242.316406 170.570312 242.316406 166.945312 C 242.316406 163.324219 239.367188 160.378906 235.746094 160.378906 L 217.695312 160.378906 C 216.375 160.378906 215.253906 159.363281 215.195312 158.117188 C 215.164062 157.457031 215.398438 156.832031 215.851562 156.359375 C 216.304688 155.882812 216.914062 155.621094 217.570312 155.621094 L 227.078125 155.621094 C 230.699219 155.621094 233.648438 152.675781 233.648438 149.050781 C 233.648438 145.425781 230.699219 142.480469 227.078125 142.480469 L 206.789062 142.480469 C 205.46875 142.480469 204.347656 141.464844 204.289062 140.21875 C 204.257812 139.5625 204.492188 138.9375 204.941406 138.460938 C 205.398438 137.988281 206.007812 137.726562 206.664062 137.726562 L 249.726562 137.726562 C 251.515625 137.726562 253.25 136.984375 254.484375 135.691406 C 255.734375 134.378906 256.375 132.65625 256.292969 130.839844 C 256.125 127.332031 253.1875 124.582031 249.601562 124.582031 L 167.164062 124.582031 C 166.007812 124.582031 165.070312 125.523438 165.070312 126.679688 C 165.070312 127.835938 166.007812 128.777344 167.164062 128.777344 L 249.601562 128.777344 C 250.921875 128.777344 252.042969 129.792969 252.101562 131.035156 C 252.132812 131.695312 251.902344 132.320312 251.445312 132.792969 C 250.992188 133.269531 250.382812 133.53125 249.726562 133.53125 L 206.664062 133.53125 C 204.875 133.53125 203.144531 134.273438 201.910156 135.566406 C 200.65625 136.878906 200.015625 138.601562 200.101562 140.417969 C 200.265625 143.925781 203.203125 146.675781 206.789062 146.675781 L 227.078125 146.675781 C 228.386719 146.675781 229.453125 147.742188 229.453125 149.050781 C 229.453125 150.359375 228.386719 151.425781 227.078125 151.425781 L 217.570312 151.425781 C 215.78125 151.425781 214.050781 152.171875 212.816406 153.464844 C 211.5625 154.773438 210.921875 156.5 211.003906 158.316406 C 211.171875 161.820312 214.109375 164.570312 217.695312 164.570312 L 235.746094 164.570312 C 237.054688 164.570312 238.121094 165.636719 238.121094 166.949219 C 238.121094 168.257812 237.054688 169.324219 235.746094 169.324219 L 210.300781 169.324219 C 208.511719 169.324219 206.777344 170.066406 205.542969 171.359375 C 204.292969 172.671875 203.648438 174.394531 203.734375 176.210938 C 203.898438 179.71875 206.839844 182.46875 210.425781 182.46875 L 216.730469 182.46875 C 218.042969 182.46875 219.109375 183.535156 219.109375 184.84375 C 219.109375 186.15625 218.042969 187.222656 216.730469 187.222656 L 129.273438 187.222656 C 127.773438 187.222656 126.550781 186 126.550781 184.5 L 126.550781 141.359375 L 176.742188 141.359375 C 177.902344 141.359375 178.839844 140.421875 178.839844 139.261719 C 178.839844 138.105469 177.902344 137.164062 176.742188 137.164062 L 126.550781 137.164062 L 126.550781 131.5 C 126.550781 130 127.773438 128.777344 129.273438 128.777344 L 158.777344 128.777344 C 159.933594 128.777344 160.875 127.835938 160.875 126.679688 C 160.875 125.523438 159.933594 124.582031 158.777344 124.582031 L 129.273438 124.582031 C 125.457031 124.582031 122.355469 127.6875 122.355469 131.5 L 122.355469 184.496094 C 122.355469 188.3125 125.457031 191.414062 129.273438 191.414062 L 216.730469 191.414062 C 220.355469 191.414062 223.300781 188.464844 223.300781 184.84375 C 223.300781 181.21875 220.355469 178.273438 216.730469 178.273438 Z M 216.730469 178.273438 " fill-opacity="1" fill-rule="nonzero"/></g><g clip-path="url(#823823ae34)"><path fill="#ffbd59" d="M 243.855469 178.273438 L 236.023438 178.273438 C 232.402344 178.273438 229.453125 181.21875 229.453125 184.84375 C 229.453125 188.464844 232.402344 191.414062 236.023438 191.414062 L 243.855469 191.414062 C 247.476562 191.414062 250.425781 188.464844 250.425781 184.84375 C 250.425781 181.21875 247.476562 178.273438 243.855469 178.273438 Z M 243.855469 187.21875 L 236.023438 187.21875 C 234.714844 187.21875 233.648438 186.152344 233.648438 184.84375 C 233.648438 183.535156 234.714844 182.46875 236.023438 182.46875 L 243.855469 182.46875 C 245.164062 182.46875 246.230469 183.535156 246.230469 184.84375 C 246.230469 186.152344 245.164062 187.21875 243.855469 187.21875 Z M 243.855469 187.21875 " fill-opacity="1" fill-rule="nonzero"/></g><path fill="#ffbd59" d="M 194.640625 141.359375 C 195.796875 141.359375 196.738281 140.421875 196.738281 139.261719 C 196.738281 138.105469 195.796875 137.164062 194.640625 137.164062 L 185.410156 137.164062 C 184.253906 137.164062 183.3125 138.105469 183.3125 139.261719 C 183.3125 140.421875 184.253906 141.359375 185.410156 141.359375 Z M 194.640625 141.359375 " fill-opacity="1" fill-rule="nonzero"/><path fill="#ffbd59" d="M 133.539062 133.390625 C 133.539062 134.394531 132.726562 135.210938 131.722656 135.210938 C 130.71875 135.210938 129.90625 134.394531 129.90625 133.390625 C 129.90625 132.386719 130.71875 131.574219 131.722656 131.574219 C 132.726562 131.574219 133.539062 132.386719 133.539062 133.390625 Z M 133.539062 133.390625 " fill-opacity="1" fill-rule="nonzero"/><path fill="#ffbd59" d="M 140.25 133.390625 C 140.25 134.394531 139.4375 135.210938 138.433594 135.210938 C 137.429688 135.210938 136.617188 134.394531 136.617188 133.390625 C 136.617188 132.386719 137.429688 131.574219 138.433594 131.574219 C 139.4375 131.574219 140.25 132.386719 140.25 133.390625 Z M 140.25 133.390625 " fill-opacity="1" fill-rule="nonzero"/><path fill="#ffbd59" d="M 146.960938 133.390625 C 146.960938 134.394531 146.148438 135.210938 145.144531 135.210938 C 144.140625 135.210938 143.328125 134.394531 143.328125 133.390625 C 143.328125 132.386719 144.140625 131.574219 145.144531 131.574219 C 146.148438 131.574219 146.960938 132.386719 146.960938 133.390625 Z M 146.960938 133.390625 " fill-opacity="1" fill-rule="nonzero"/><path fill="#ffbd59" d="M 138.65625 149.105469 C 137.839844 148.285156 136.511719 148.285156 135.691406 149.105469 L 129.679688 155.121094 C 128.859375 155.9375 128.859375 157.265625 129.679688 158.082031 L 135.972656 164.375 C 136.382812 164.785156 136.917969 164.992188 137.453125 164.992188 C 137.992188 164.992188 138.527344 164.785156 138.9375 164.375 C 139.757812 163.554688 139.757812 162.226562 138.9375 161.410156 L 134.128906 156.601562 L 138.65625 152.070312 C 139.476562 151.253906 139.476562 149.925781 138.65625 149.105469 Z M 138.65625 149.105469 " fill-opacity="1" fill-rule="nonzero"/><path fill="#ffbd59" d="M 153.03125 164.375 C 153.441406 164.785156 153.976562 164.992188 154.511719 164.992188 C 155.050781 164.992188 155.585938 164.785156 155.996094 164.375 L 162.289062 158.082031 C 163.105469 157.265625 163.105469 155.9375 162.289062 155.121094 L 156.273438 149.105469 C 155.457031 148.285156 154.128906 148.285156 153.308594 149.105469 C 152.492188 149.925781 152.492188 151.253906 153.308594 152.070312 L 157.839844 156.601562 L 153.03125 161.410156 C 152.210938 162.226562 152.210938 163.554688 153.03125 164.375 Z M 153.03125 164.375 " fill-opacity="1" fill-rule="nonzero"/><path fill="#ffbd59" d="M 142.90625 164.851562 C 143.640625 164.851562 144.355469 164.460938 144.738281 163.773438 L 151.449219 151.75 C 152.015625 150.738281 151.652344 149.460938 150.640625 148.898438 C 149.628906 148.332031 148.351562 148.695312 147.789062 149.707031 L 141.078125 161.730469 C 140.511719 162.742188 140.875 164.019531 141.886719 164.585938 C 142.210938 164.765625 142.558594 164.851562 142.90625 164.851562 Z M 142.90625 164.851562 " fill-opacity="1" fill-rule="nonzero"/><path fill="#ffbd59" d="M 168.914062 162.332031 L 187.089844 162.332031 C 188.246094 162.332031 189.1875 161.394531 189.1875 160.234375 C 189.1875 159.078125 188.246094 158.136719 187.089844 158.136719 L 168.914062 158.136719 C 167.753906 158.136719 166.816406 159.078125 166.816406 160.234375 C 166.816406 161.394531 167.753906 162.332031 168.914062 162.332031 Z M 168.914062 162.332031 " fill-opacity="1" fill-rule="nonzero"/><path fill="#ffbd59" d="M 168.914062 152.546875 L 171.152344 152.546875 C 172.308594 152.546875 173.25 151.605469 173.25 150.449219 C 173.25 149.289062 172.308594 148.351562 171.152344 148.351562 L 168.914062 148.351562 C 167.753906 148.351562 166.816406 149.289062 166.816406 150.449219 C 166.816406 151.605469 167.753906 152.546875 168.914062 152.546875 Z M 168.914062 152.546875 " fill-opacity="1" fill-rule="nonzero"/><path fill="#ffbd59" d="M 204.847656 160.234375 C 204.847656 159.078125 203.90625 158.136719 202.75 158.136719 L 194.082031 158.136719 C 192.921875 158.136719 191.984375 159.078125 191.984375 160.234375 C 191.984375 161.394531 192.921875 162.332031 194.082031 162.332031 L 202.75 162.332031 C 203.90625 162.332031 204.847656 161.394531 204.847656 160.234375 Z M 204.847656 160.234375 " fill-opacity="1" fill-rule="nonzero"/><path fill="#ffbd59" d="M 172.96875 170.582031 C 172.96875 169.425781 172.027344 168.488281 170.871094 168.488281 L 137.316406 168.488281 C 136.15625 168.488281 135.21875 169.425781 135.21875 170.582031 C 135.21875 171.742188 136.15625 172.679688 137.316406 172.679688 L 170.871094 172.679688 C 172.027344 172.679688 172.96875 171.742188 172.96875 170.582031 Z M 172.96875 170.582031 " fill-opacity="1" fill-rule="nonzero"/><path fill="#ffbd59" d="M 194.082031 168.488281 L 178.140625 168.488281 C 176.984375 168.488281 176.042969 169.425781 176.042969 170.582031 C 176.042969 171.742188 176.984375 172.679688 178.140625 172.679688 L 194.082031 172.679688 C 195.238281 172.679688 196.175781 171.742188 196.175781 170.582031 C 196.175781 169.425781 195.238281 168.488281 194.082031 168.488281 Z M 194.082031 168.488281 " fill-opacity="1" fill-rule="nonzero"/><path fill="#ffbd59" d="M 137.316406 177.710938 C 136.15625 177.710938 135.21875 178.652344 135.21875 179.808594 C 135.21875 180.96875 136.15625 181.90625 137.316406 181.90625 L 148.222656 181.90625 C 149.378906 181.90625 150.316406 180.96875 150.316406 179.808594 C 150.316406 178.652344 149.378906 177.710938 148.222656 177.710938 Z M 137.316406 177.710938 " fill-opacity="1" fill-rule="nonzero"/><path fill="#ffbd59" d="M 154.652344 177.710938 C 153.492188 177.710938 152.554688 178.652344 152.554688 179.808594 C 152.554688 180.96875 153.492188 181.90625 154.652344 181.90625 L 160.804688 181.90625 C 161.960938 181.90625 162.902344 180.96875 162.902344 179.808594 C 162.902344 178.652344 161.960938 177.710938 160.804688 177.710938 Z M 154.652344 177.710938 " fill-opacity="1" fill-rule="nonzero"/><path fill="#ffbd59" d="M 166.398438 181.90625 L 194.082031 181.90625 C 195.238281 181.90625 196.175781 180.96875 196.175781 179.808594 C 196.175781 178.652344 195.238281 177.710938 194.082031 177.710938 L 166.398438 177.710938 C 165.238281 177.710938 164.300781 178.652344 164.300781 179.808594 C 164.300781 180.96875 165.238281 181.90625 166.398438 181.90625 Z M 166.398438 181.90625 " fill-opacity="1" fill-rule="nonzero"/><path fill="#ffbd59" d="M 175.484375 150.726562 C 175.484375 151.886719 176.425781 152.824219 177.582031 152.824219 L 194.640625 152.824219 C 195.796875 152.824219 196.738281 151.886719 196.738281 150.726562 C 196.738281 149.570312 195.796875 148.632812 194.640625 148.632812 L 177.582031 148.632812 C 176.425781 148.632812 175.484375 149.570312 175.484375 150.726562 Z M 175.484375 150.726562 " fill-opacity="1" fill-rule="nonzero"/><g fill="#d9d9d9" fill-opacity="1"><g transform="translate(89.437499, 228.116733)"><g><path d="M 22.109375 -25.046875 C 22.722656 -24.710938 23.03125 -24.203125 23.03125 -23.515625 C 23.03125 -23.066406 22.878906 -22.648438 22.578125 -22.265625 C 22.265625 -21.859375 21.84375 -21.65625 21.3125 -21.65625 C 20.957031 -21.65625 20.617188 -21.742188 20.296875 -21.921875 C 18.722656 -22.804688 17.023438 -23.25 15.203125 -23.25 C 13.296875 -23.25 11.613281 -22.832031 10.15625 -22 C 8.707031 -21.164062 7.578125 -19.992188 6.765625 -18.484375 C 5.953125 -16.972656 5.546875 -15.242188 5.546875 -13.296875 C 5.546875 -11.191406 5.960938 -9.378906 6.796875 -7.859375 C 7.640625 -6.347656 8.796875 -5.191406 10.265625 -4.390625 C 11.734375 -3.585938 13.378906 -3.1875 15.203125 -3.1875 C 17.078125 -3.1875 18.773438 -3.644531 20.296875 -4.5625 C 20.597656 -4.707031 20.925781 -4.78125 21.28125 -4.78125 C 21.832031 -4.78125 22.273438 -4.566406 22.609375 -4.140625 C 22.910156 -3.765625 23.0625 -3.359375 23.0625 -2.921875 C 23.0625 -2.617188 22.976562 -2.332031 22.8125 -2.0625 C 22.65625 -1.800781 22.4375 -1.59375 22.15625 -1.4375 C 21.164062 -0.882812 20.054688 -0.441406 18.828125 -0.109375 C 17.597656 0.210938 16.390625 0.375 15.203125 0.375 C 12.742188 0.375 10.476562 -0.164062 8.40625 -1.25 C 6.34375 -2.34375 4.695312 -3.925781 3.46875 -6 C 2.25 -8.082031 1.640625 -10.515625 1.640625 -13.296875 C 1.640625 -15.859375 2.226562 -18.171875 3.40625 -20.234375 C 4.582031 -22.296875 6.203125 -23.914062 8.265625 -25.09375 C 10.328125 -26.269531 12.640625 -26.859375 15.203125 -26.859375 C 17.660156 -26.859375 19.960938 -26.253906 22.109375 -25.046875 Z M 22.109375 -25.046875 "/></g></g></g><g fill="#d9d9d9" fill-opacity="1"><g transform="translate(113.676542, 228.116733)"><g><path d="M 21.546875 -9.953125 C 21.546875 -7.972656 21.101562 -6.195312 20.21875 -4.625 C 19.332031 -3.0625 18.117188 -1.835938 16.578125 -0.953125 C 15.046875 -0.0664062 13.359375 0.375 11.515625 0.375 C 9.660156 0.375 7.96875 -0.0664062 6.4375 -0.953125 C 4.90625 -1.835938 3.695312 -3.0625 2.8125 -4.625 C 1.925781 -6.195312 1.484375 -7.972656 1.484375 -9.953125 C 1.484375 -11.929688 1.925781 -13.71875 2.8125 -15.3125 C 3.695312 -16.90625 4.90625 -18.144531 6.4375 -19.03125 C 7.96875 -19.925781 9.660156 -20.375 11.515625 -20.375 C 13.359375 -20.375 15.046875 -19.925781 16.578125 -19.03125 C 18.117188 -18.144531 19.332031 -16.90625 20.21875 -15.3125 C 21.101562 -13.71875 21.546875 -11.929688 21.546875 -9.953125 Z M 17.9375 -9.953125 C 17.9375 -11.328125 17.648438 -12.550781 17.078125 -13.625 C 16.503906 -14.695312 15.726562 -15.53125 14.75 -16.125 C 13.78125 -16.726562 12.703125 -17.03125 11.515625 -17.03125 C 10.328125 -17.03125 9.242188 -16.726562 8.265625 -16.125 C 7.285156 -15.53125 6.507812 -14.695312 5.9375 -13.625 C 5.375 -12.550781 5.09375 -11.328125 5.09375 -9.953125 C 5.09375 -8.609375 5.375 -7.40625 5.9375 -6.34375 C 6.507812 -5.28125 7.285156 -4.453125 8.265625 -3.859375 C 9.242188 -3.265625 10.328125 -2.96875 11.515625 -2.96875 C 12.703125 -2.96875 13.78125 -3.265625 14.75 -3.859375 C 15.726562 -4.453125 16.503906 -5.28125 17.078125 -6.34375 C 17.648438 -7.40625 17.9375 -8.609375 17.9375 -9.953125 Z M 17.9375 -9.953125 "/></g></g></g><g fill="#d9d9d9" fill-opacity="1"><g transform="translate(136.699832, 228.116733)"><g><path d="M 18.84375 -28.125 C 19.375 -28.125 19.8125 -27.953125 20.15625 -27.609375 C 20.5 -27.265625 20.671875 -26.828125 20.671875 -26.296875 L 20.671875 -1.828125 C 20.671875 -1.316406 20.5 -0.882812 20.15625 -0.53125 C 19.8125 -0.175781 19.375 0 18.84375 0 C 18.3125 0 17.878906 -0.171875 17.546875 -0.515625 C 17.222656 -0.859375 17.0625 -1.296875 17.0625 -1.828125 L 17.0625 -2.890625 C 16.425781 -1.972656 15.53125 -1.195312 14.375 -0.5625 C 13.226562 0.0625 11.992188 0.375 10.671875 0.375 C 8.953125 0.375 7.394531 -0.0664062 6 -0.953125 C 4.601562 -1.835938 3.5 -3.070312 2.6875 -4.65625 C 1.882812 -6.238281 1.484375 -8.019531 1.484375 -10 C 1.484375 -11.96875 1.878906 -13.742188 2.671875 -15.328125 C 3.472656 -16.910156 4.570312 -18.144531 5.96875 -19.03125 C 7.363281 -19.925781 8.894531 -20.375 10.5625 -20.375 C 11.90625 -20.375 13.144531 -20.09375 14.28125 -19.53125 C 15.425781 -18.976562 16.351562 -18.253906 17.0625 -17.359375 L 17.0625 -26.296875 C 17.0625 -26.828125 17.222656 -27.265625 17.546875 -27.609375 C 17.878906 -27.953125 18.3125 -28.125 18.84375 -28.125 Z M 11.09375 -2.96875 C 12.28125 -2.96875 13.335938 -3.269531 14.265625 -3.875 C 15.191406 -4.476562 15.914062 -5.3125 16.4375 -6.375 C 16.957031 -7.445312 17.21875 -8.65625 17.21875 -10 C 17.21875 -11.3125 16.957031 -12.503906 16.4375 -13.578125 C 15.914062 -14.660156 15.191406 -15.503906 14.265625 -16.109375 C 13.335938 -16.722656 12.28125 -17.03125 11.09375 -17.03125 C 9.90625 -17.03125 8.847656 -16.722656 7.921875 -16.109375 C 6.992188 -15.503906 6.269531 -14.660156 5.75 -13.578125 C 5.238281 -12.503906 4.984375 -11.3125 4.984375 -10 C 4.984375 -8.65625 5.238281 -7.445312 5.75 -6.375 C 6.269531 -5.3125 6.992188 -4.476562 7.921875 -3.875 C 8.847656 -3.269531 9.90625 -2.96875 11.09375 -2.96875 Z M 11.09375 -2.96875 "/></g></g></g><g fill="#d9d9d9" fill-opacity="1"><g transform="translate(160.027067, 228.116733)"><g><path d="M 20.171875 -10.71875 C 20.148438 -10.257812 19.960938 -9.867188 19.609375 -9.546875 C 19.253906 -9.234375 18.835938 -9.078125 18.359375 -9.078125 L 4.984375 -9.078125 C 5.160156 -7.234375 5.863281 -5.753906 7.09375 -4.640625 C 8.320312 -3.523438 9.820312 -2.96875 11.59375 -2.96875 C 12.800781 -2.96875 13.785156 -3.144531 14.546875 -3.5 C 15.304688 -3.851562 15.976562 -4.304688 16.5625 -4.859375 C 16.945312 -5.085938 17.316406 -5.203125 17.671875 -5.203125 C 18.097656 -5.203125 18.457031 -5.050781 18.75 -4.75 C 19.039062 -4.445312 19.1875 -4.09375 19.1875 -3.6875 C 19.1875 -3.15625 18.9375 -2.671875 18.4375 -2.234375 C 17.695312 -1.503906 16.71875 -0.882812 15.5 -0.375 C 14.289062 0.125 13.050781 0.375 11.78125 0.375 C 9.726562 0.375 7.921875 -0.0507812 6.359375 -0.90625 C 4.804688 -1.769531 3.601562 -2.972656 2.75 -4.515625 C 1.90625 -6.066406 1.484375 -7.816406 1.484375 -9.765625 C 1.484375 -11.890625 1.921875 -13.753906 2.796875 -15.359375 C 3.671875 -16.972656 4.820312 -18.210938 6.25 -19.078125 C 7.675781 -19.941406 9.21875 -20.375 10.875 -20.375 C 12.488281 -20.375 14.003906 -19.953125 15.421875 -19.109375 C 16.847656 -18.273438 17.988281 -17.125 18.84375 -15.65625 C 19.707031 -14.1875 20.148438 -12.539062 20.171875 -10.71875 Z M 10.875 -17.03125 C 9.445312 -17.03125 8.210938 -16.628906 7.171875 -15.828125 C 6.140625 -15.023438 5.457031 -13.789062 5.125 -12.125 L 16.34375 -12.125 L 16.34375 -12.421875 C 16.21875 -13.765625 15.613281 -14.867188 14.53125 -15.734375 C 13.457031 -16.597656 12.238281 -17.03125 10.875 -17.03125 Z M 10.875 -17.03125 "/></g></g></g><g fill="#d9d9d9" fill-opacity="1"><g transform="translate(181.682641, 228.116733)"><g/></g></g><g fill="#d9d9d9" fill-opacity="1"><g transform="translate(192.20649, 228.116733)"><g><path d="M 33.4375 -26.71875 C 33.914062 -26.71875 34.359375 -26.539062 34.765625 -26.1875 C 35.171875 -25.832031 35.375 -25.363281 35.375 -24.78125 C 35.375 -24.570312 35.335938 -24.351562 35.265625 -24.125 L 27.390625 -1.140625 C 27.296875 -0.785156 27.085938 -0.507812 26.765625 -0.3125 C 26.453125 -0.125 26.117188 -0.0195312 25.765625 0 C 25.410156 0 25.066406 -0.0976562 24.734375 -0.296875 C 24.410156 -0.503906 24.171875 -0.796875 24.015625 -1.171875 L 18.09375 -15.046875 L 12.203125 -1.171875 C 12.046875 -0.796875 11.800781 -0.503906 11.46875 -0.296875 C 11.144531 -0.0976562 10.789062 0 10.40625 0 C 10.050781 -0.0195312 9.722656 -0.128906 9.421875 -0.328125 C 9.117188 -0.535156 8.914062 -0.804688 8.8125 -1.140625 L 0.953125 -24.125 C 0.878906 -24.351562 0.84375 -24.570312 0.84375 -24.78125 C 0.84375 -25.332031 1.050781 -25.789062 1.46875 -26.15625 C 1.882812 -26.53125 2.332031 -26.71875 2.8125 -26.71875 C 3.21875 -26.71875 3.582031 -26.609375 3.90625 -26.390625 C 4.238281 -26.171875 4.457031 -25.882812 4.5625 -25.53125 L 10.984375 -6.5 L 16.484375 -20.03125 C 16.640625 -20.382812 16.867188 -20.660156 17.171875 -20.859375 C 17.472656 -21.066406 17.816406 -21.171875 18.203125 -21.171875 C 18.578125 -21.171875 18.914062 -21.066406 19.21875 -20.859375 C 19.53125 -20.660156 19.757812 -20.382812 19.90625 -20.03125 L 25.265625 -6.5 L 31.65625 -25.53125 C 31.757812 -25.914062 31.972656 -26.207031 32.296875 -26.40625 C 32.628906 -26.613281 33.007812 -26.71875 33.4375 -26.71875 Z M 33.4375 -26.71875 "/></g></g></g><g fill="#d9d9d9" fill-opacity="1"><g transform="translate(228.413087, 228.116733)"><g><path d="M 18.84375 -20.171875 C 19.375 -20.171875 19.8125 -20 20.15625 -19.65625 C 20.5 -19.320312 20.671875 -18.875 20.671875 -18.3125 L 20.671875 -1.828125 C 20.671875 -1.316406 20.5 -0.882812 20.15625 -0.53125 C 19.8125 -0.175781 19.375 0 18.84375 0 C 18.3125 0 17.878906 -0.171875 17.546875 -0.515625 C 17.222656 -0.859375 17.0625 -1.296875 17.0625 -1.828125 L 17.0625 -2.8125 C 16.40625 -1.925781 15.503906 -1.171875 14.359375 -0.546875 C 13.222656 0.0664062 11.992188 0.375 10.671875 0.375 C 8.953125 0.375 7.390625 -0.0664062 5.984375 -0.953125 C 4.578125 -1.835938 3.472656 -3.070312 2.671875 -4.65625 C 1.878906 -6.238281 1.484375 -8.019531 1.484375 -10 C 1.484375 -11.96875 1.878906 -13.742188 2.671875 -15.328125 C 3.472656 -16.910156 4.570312 -18.144531 5.96875 -19.03125 C 7.363281 -19.925781 8.894531 -20.375 10.5625 -20.375 C 11.90625 -20.375 13.148438 -20.09375 14.296875 -19.53125 C 15.453125 -18.976562 16.375 -18.269531 17.0625 -17.40625 L 17.0625 -18.3125 C 17.0625 -18.84375 17.222656 -19.285156 17.546875 -19.640625 C 17.878906 -19.992188 18.3125 -20.171875 18.84375 -20.171875 Z M 11.09375 -2.96875 C 12.28125 -2.96875 13.335938 -3.269531 14.265625 -3.875 C 15.191406 -4.476562 15.914062 -5.3125 16.4375 -6.375 C 16.957031 -7.445312 17.21875 -8.65625 17.21875 -10 C 17.21875 -11.3125 16.957031 -12.5 16.4375 -13.5625 C 15.914062 -14.625 15.191406 -15.46875 14.265625 -16.09375 C 13.335938 -16.71875 12.28125 -17.03125 11.09375 -17.03125 C 9.90625 -17.03125 8.847656 -16.722656 7.921875 -16.109375 C 6.992188 -15.503906 6.269531 -14.671875 5.75 -13.609375 C 5.238281 -12.546875 4.984375 -11.34375 4.984375 -10 C 4.984375 -8.65625 5.238281 -7.445312 5.75 -6.375 C 6.269531 -5.3125 6.992188 -4.476562 7.921875 -3.875 C 8.847656 -3.269531 9.90625 -2.96875 11.09375 -2.96875 Z M 11.09375 -2.96875 "/></g></g></g><g fill="#d9d9d9" fill-opacity="1"><g transform="translate(251.740322, 228.116733)"><g><path d="M 12.609375 -20.375 C 13.273438 -20.375 13.847656 -20.203125 14.328125 -19.859375 C 14.804688 -19.515625 15.046875 -19.085938 15.046875 -18.578125 C 15.046875 -17.972656 14.882812 -17.507812 14.5625 -17.1875 C 14.25 -16.875 13.863281 -16.71875 13.40625 -16.71875 C 13.1875 -16.71875 12.847656 -16.796875 12.390625 -16.953125 C 11.859375 -17.128906 11.441406 -17.21875 11.140625 -17.21875 C 10.347656 -17.21875 9.578125 -16.941406 8.828125 -16.390625 C 8.085938 -15.847656 7.484375 -15.101562 7.015625 -14.15625 C 6.546875 -13.207031 6.3125 -12.148438 6.3125 -10.984375 L 6.3125 -1.828125 C 6.3125 -1.316406 6.140625 -0.882812 5.796875 -0.53125 C 5.453125 -0.175781 5.015625 0 4.484375 0 C 3.953125 0 3.519531 -0.171875 3.1875 -0.515625 C 2.863281 -0.859375 2.703125 -1.296875 2.703125 -1.828125 L 2.703125 -18.09375 C 2.703125 -18.59375 2.867188 -19.019531 3.203125 -19.375 C 3.546875 -19.726562 3.972656 -19.90625 4.484375 -19.90625 C 5.015625 -19.90625 5.453125 -19.726562 5.796875 -19.375 C 6.140625 -19.019531 6.3125 -18.59375 6.3125 -18.09375 L 6.3125 -16.15625 C 6.863281 -17.394531 7.695312 -18.398438 8.8125 -19.171875 C 9.925781 -19.941406 11.191406 -20.34375 12.609375 -20.375 Z M 12.609375 -20.375 "/></g></g></g><g fill="#d9d9d9" fill-opacity="1"><g transform="translate(267.431121, 228.116733)"><g><path d="M 1.5625 -3.109375 C 1.332031 -3.460938 1.21875 -3.804688 1.21875 -4.140625 C 1.21875 -4.648438 1.484375 -5.082031 2.015625 -5.4375 C 2.265625 -5.613281 2.554688 -5.703125 2.890625 -5.703125 C 3.347656 -5.703125 3.765625 -5.507812 4.140625 -5.125 C 4.898438 -4.269531 5.71875 -3.625 6.59375 -3.1875 C 7.46875 -2.757812 8.515625 -2.546875 9.734375 -2.546875 C 10.691406 -2.566406 11.535156 -2.785156 12.265625 -3.203125 C 13.003906 -3.628906 13.375 -4.3125 13.375 -5.25 C 13.375 -6.101562 13 -6.757812 12.25 -7.21875 C 11.507812 -7.675781 10.414062 -8.09375 8.96875 -8.46875 C 7.550781 -8.851562 6.375 -9.253906 5.4375 -9.671875 C 4.5 -10.085938 3.707031 -10.691406 3.0625 -11.484375 C 2.414062 -12.285156 2.09375 -13.332031 2.09375 -14.625 C 2.09375 -15.769531 2.414062 -16.769531 3.0625 -17.625 C 3.707031 -18.488281 4.566406 -19.160156 5.640625 -19.640625 C 6.722656 -20.128906 7.894531 -20.375 9.15625 -20.375 C 10.375 -20.375 11.582031 -20.144531 12.78125 -19.6875 C 13.988281 -19.226562 14.972656 -18.53125 15.734375 -17.59375 C 16.035156 -17.238281 16.1875 -16.867188 16.1875 -16.484375 C 16.1875 -16.085938 15.984375 -15.695312 15.578125 -15.3125 C 15.328125 -15.082031 15.007812 -14.96875 14.625 -14.96875 C 14.175781 -14.96875 13.8125 -15.117188 13.53125 -15.421875 C 13 -16.035156 12.34375 -16.503906 11.5625 -16.828125 C 10.789062 -17.160156 9.9375 -17.328125 9 -17.328125 C 8.039062 -17.328125 7.222656 -17.128906 6.546875 -16.734375 C 5.878906 -16.347656 5.546875 -15.6875 5.546875 -14.75 C 5.578125 -13.851562 5.960938 -13.191406 6.703125 -12.765625 C 7.453125 -12.335938 8.597656 -11.921875 10.140625 -11.515625 C 11.484375 -11.160156 12.597656 -10.78125 13.484375 -10.375 C 14.367188 -9.96875 15.113281 -9.363281 15.71875 -8.5625 C 16.332031 -7.769531 16.640625 -6.726562 16.640625 -5.4375 C 16.640625 -4.238281 16.296875 -3.203125 15.609375 -2.328125 C 14.929688 -1.460938 14.039062 -0.796875 12.9375 -0.328125 C 11.832031 0.140625 10.660156 0.375 9.421875 0.375 C 7.828125 0.375 6.351562 0.0976562 5 -0.453125 C 3.644531 -1.015625 2.5 -1.898438 1.5625 -3.109375 Z M 1.5625 -3.109375 "/></g></g></g></svg>